#N canvas 482 285 590 473 12;
#X obj 132 363 oscparse;
#X obj 186 415 print OSC;
#X obj 186 393 spigot;
#X obj 132 415 outlet;
#X obj 101 15 inlet;
#X obj 303 68 f \$2;
#X obj 132 341 netreceive -u -b;
#X text 75 188 listen to port;
#X floatatom 193 187 10 0 0 0 - - -;
#X text 76 212 print OSC input;
#X obj 193 213 tgl 15 0 empty empty empty 17 7 0 10 -262144 -1 -1 1
1;
#X obj 193 163 tgl 15 0 empty empty empty 17 7 0 10 -262144 -1 -1 1
1;
#X text 74 162 receive messages;
#X obj 99 48 loadbang;
#X msg 132 319 listen \$1;
#X msg 100 293 0;
#X obj 100 269 sel 0 1;
#X obj 135 292 f;
#X obj 303 92 f \$3;
#X obj 304 44 f \$1;
#X text 75 240 OSC messages_______________;
#X text 77 113 On/off_____Port______Print;
#X text 144 139 [OSCin];
#X text 346 44 1 receive on/off by default;
#X text 372 68 2 listen to port;
#X text 347 93 3 print messages by default;
#X text 260 14 ARGUMENTS: receive(0/1) \, Port \, Print(0/1);
#X obj 143 15 inlet;
#X obj 185 15 inlet;
#X connect 0 0 2 0;
#X connect 0 0 3 0;
#X connect 2 0 1 0;
#X connect 4 0 19 0;
#X connect 5 0 8 0;
#X connect 6 0 0 0;
#X connect 8 0 17 0;
#X connect 10 0 2 1;
#X connect 11 0 16 0;
#X connect 13 0 19 0;
#X connect 13 0 5 0;
#X connect 13 0 18 0;
#X connect 14 0 6 0;
#X connect 15 0 14 0;
#X connect 16 0 15 0;
#X connect 16 1 17 0;
#X connect 17 0 14 0;
#X connect 18 0 10 0;
#X connect 19 0 11 0;
#X connect 27 0 5 0;
#X connect 28 0 18 0;
#X coords 0 -1 1 1 200 150 2 70 110;
